<mxfile host="app.diagrams.net" modified="2023-11-16T19:59:13.403Z" agent="Mozilla/5.0 (Windows NT 10.0; Win64; x64) AppleWebKit/537.36 (KHTML, like Gecko) Chrome/116.0.0.0 Safari/537.36" etag="CXdGEXBeYbT742eC6C9p" version="22.1.2" type="device">
  <diagram name="Trang-1" id="Z1414O9MlyAm52RzKEVQ">
    <mxGraphModel dx="1006" dy="559" grid="1" gridSize="10" guides="1" tooltips="1" connect="1" arrows="1" fold="1" page="1" pageScale="1" pageWidth="827" pageHeight="1169" math="0" shadow="0">
      <root>
        <mxCell id="0" />
        <mxCell id="1" parent="0" />
        <mxCell id="pJswhFiRaAlgQsFaP6x4-3" value="" style="edgeStyle=orthogonalEdgeStyle;rounded=0;orthogonalLoop=1;jettySize=auto;html=1;" edge="1" parent="1" source="pJswhFiRaAlgQsFaP6x4-1" target="pJswhFiRaAlgQsFaP6x4-2">
          <mxGeometry relative="1" as="geometry" />
        </mxCell>
        <mxCell id="pJswhFiRaAlgQsFaP6x4-1" value="Start" style="ellipse;whiteSpace=wrap;html=1;" vertex="1" parent="1">
          <mxGeometry x="240" y="10" width="120" height="80" as="geometry" />
        </mxCell>
        <mxCell id="pJswhFiRaAlgQsFaP6x4-5" value="" style="edgeStyle=orthogonalEdgeStyle;rounded=0;orthogonalLoop=1;jettySize=auto;html=1;" edge="1" parent="1" source="pJswhFiRaAlgQsFaP6x4-2" target="pJswhFiRaAlgQsFaP6x4-4">
          <mxGeometry relative="1" as="geometry" />
        </mxCell>
        <mxCell id="pJswhFiRaAlgQsFaP6x4-2" value="n" style="rounded=0;whiteSpace=wrap;html=1;" vertex="1" parent="1">
          <mxGeometry x="240" y="120" width="120" height="60" as="geometry" />
        </mxCell>
        <mxCell id="pJswhFiRaAlgQsFaP6x4-7" value="" style="edgeStyle=orthogonalEdgeStyle;rounded=0;orthogonalLoop=1;jettySize=auto;html=1;" edge="1" parent="1" source="pJswhFiRaAlgQsFaP6x4-4" target="pJswhFiRaAlgQsFaP6x4-6">
          <mxGeometry relative="1" as="geometry" />
        </mxCell>
        <mxCell id="pJswhFiRaAlgQsFaP6x4-4" value="Nhập n" style="shape=parallelogram;perimeter=parallelogramPerimeter;whiteSpace=wrap;html=1;fixedSize=1;rounded=0;" vertex="1" parent="1">
          <mxGeometry x="240" y="210" width="120" height="60" as="geometry" />
        </mxCell>
        <mxCell id="pJswhFiRaAlgQsFaP6x4-11" value="" style="edgeStyle=orthogonalEdgeStyle;rounded=0;orthogonalLoop=1;jettySize=auto;html=1;" edge="1" parent="1" source="pJswhFiRaAlgQsFaP6x4-6" target="pJswhFiRaAlgQsFaP6x4-10">
          <mxGeometry relative="1" as="geometry" />
        </mxCell>
        <mxCell id="pJswhFiRaAlgQsFaP6x4-6" value="numbers[n]" style="whiteSpace=wrap;html=1;rounded=0;" vertex="1" parent="1">
          <mxGeometry x="240" y="320" width="120" height="60" as="geometry" />
        </mxCell>
        <mxCell id="pJswhFiRaAlgQsFaP6x4-13" value="" style="edgeStyle=orthogonalEdgeStyle;rounded=0;orthogonalLoop=1;jettySize=auto;html=1;" edge="1" parent="1" source="pJswhFiRaAlgQsFaP6x4-10" target="pJswhFiRaAlgQsFaP6x4-12">
          <mxGeometry relative="1" as="geometry" />
        </mxCell>
        <mxCell id="pJswhFiRaAlgQsFaP6x4-10" value="i = 0" style="whiteSpace=wrap;html=1;rounded=0;" vertex="1" parent="1">
          <mxGeometry x="240" y="440" width="120" height="60" as="geometry" />
        </mxCell>
        <mxCell id="pJswhFiRaAlgQsFaP6x4-17" value="true" style="edgeStyle=orthogonalEdgeStyle;rounded=0;orthogonalLoop=1;jettySize=auto;html=1;" edge="1" parent="1" source="pJswhFiRaAlgQsFaP6x4-12" target="pJswhFiRaAlgQsFaP6x4-16">
          <mxGeometry relative="1" as="geometry" />
        </mxCell>
        <mxCell id="pJswhFiRaAlgQsFaP6x4-23" value="false" style="edgeStyle=orthogonalEdgeStyle;rounded=0;orthogonalLoop=1;jettySize=auto;html=1;" edge="1" parent="1" source="pJswhFiRaAlgQsFaP6x4-12">
          <mxGeometry relative="1" as="geometry">
            <mxPoint x="300" y="720" as="targetPoint" />
          </mxGeometry>
        </mxCell>
        <mxCell id="pJswhFiRaAlgQsFaP6x4-12" value="i &amp;lt; n" style="rhombus;whiteSpace=wrap;html=1;rounded=0;" vertex="1" parent="1">
          <mxGeometry x="260" y="560" width="80" height="80" as="geometry" />
        </mxCell>
        <mxCell id="pJswhFiRaAlgQsFaP6x4-19" value="" style="edgeStyle=orthogonalEdgeStyle;rounded=0;orthogonalLoop=1;jettySize=auto;html=1;" edge="1" parent="1" source="pJswhFiRaAlgQsFaP6x4-16" target="pJswhFiRaAlgQsFaP6x4-18">
          <mxGeometry relative="1" as="geometry" />
        </mxCell>
        <mxCell id="pJswhFiRaAlgQsFaP6x4-16" value="Nhập numbers[i]" style="shape=parallelogram;perimeter=parallelogramPerimeter;whiteSpace=wrap;html=1;fixedSize=1;rounded=0;" vertex="1" parent="1">
          <mxGeometry x="380" y="570" width="120" height="60" as="geometry" />
        </mxCell>
        <mxCell id="pJswhFiRaAlgQsFaP6x4-20" style="edgeStyle=orthogonalEdgeStyle;rounded=0;orthogonalLoop=1;jettySize=auto;html=1;movable=1;resizable=1;rotatable=1;deletable=1;editable=1;locked=0;connectable=1;entryX=0.5;entryY=0;entryDx=0;entryDy=0;" edge="1" parent="1" source="pJswhFiRaAlgQsFaP6x4-18" target="pJswhFiRaAlgQsFaP6x4-12">
          <mxGeometry relative="1" as="geometry">
            <mxPoint x="620" y="520" as="targetPoint" />
            <Array as="points">
              <mxPoint x="620" y="520" />
              <mxPoint x="300" y="520" />
            </Array>
          </mxGeometry>
        </mxCell>
        <mxCell id="pJswhFiRaAlgQsFaP6x4-18" value="i + 1" style="whiteSpace=wrap;html=1;rounded=0;" vertex="1" parent="1">
          <mxGeometry x="560" y="570" width="120" height="60" as="geometry" />
        </mxCell>
        <mxCell id="pJswhFiRaAlgQsFaP6x4-26" value="" style="edgeStyle=orthogonalEdgeStyle;rounded=0;orthogonalLoop=1;jettySize=auto;html=1;" edge="1" parent="1" source="pJswhFiRaAlgQsFaP6x4-24" target="pJswhFiRaAlgQsFaP6x4-25">
          <mxGeometry relative="1" as="geometry" />
        </mxCell>
        <mxCell id="pJswhFiRaAlgQsFaP6x4-24" value="i =1,key=numbers[i]&lt;br&gt;j = i-1" style="rounded=0;whiteSpace=wrap;html=1;" vertex="1" parent="1">
          <mxGeometry x="240" y="720" width="120" height="60" as="geometry" />
        </mxCell>
        <mxCell id="pJswhFiRaAlgQsFaP6x4-28" value="true" style="edgeStyle=orthogonalEdgeStyle;rounded=0;orthogonalLoop=1;jettySize=auto;html=1;" edge="1" parent="1" source="pJswhFiRaAlgQsFaP6x4-25" target="pJswhFiRaAlgQsFaP6x4-27">
          <mxGeometry relative="1" as="geometry" />
        </mxCell>
        <mxCell id="pJswhFiRaAlgQsFaP6x4-40" value="false" style="edgeStyle=orthogonalEdgeStyle;rounded=0;orthogonalLoop=1;jettySize=auto;html=1;" edge="1" parent="1" source="pJswhFiRaAlgQsFaP6x4-25">
          <mxGeometry relative="1" as="geometry">
            <mxPoint x="300" y="1000" as="targetPoint" />
          </mxGeometry>
        </mxCell>
        <mxCell id="pJswhFiRaAlgQsFaP6x4-25" value="i &amp;lt; n" style="rhombus;whiteSpace=wrap;html=1;rounded=0;" vertex="1" parent="1">
          <mxGeometry x="260" y="850" width="80" height="80" as="geometry" />
        </mxCell>
        <mxCell id="pJswhFiRaAlgQsFaP6x4-30" value="true" style="edgeStyle=orthogonalEdgeStyle;rounded=0;orthogonalLoop=1;jettySize=auto;html=1;" edge="1" parent="1" source="pJswhFiRaAlgQsFaP6x4-27" target="pJswhFiRaAlgQsFaP6x4-29">
          <mxGeometry relative="1" as="geometry" />
        </mxCell>
        <mxCell id="pJswhFiRaAlgQsFaP6x4-35" value="false" style="edgeStyle=orthogonalEdgeStyle;rounded=0;orthogonalLoop=1;jettySize=auto;html=1;" edge="1" parent="1" source="pJswhFiRaAlgQsFaP6x4-27" target="pJswhFiRaAlgQsFaP6x4-34">
          <mxGeometry relative="1" as="geometry" />
        </mxCell>
        <mxCell id="pJswhFiRaAlgQsFaP6x4-27" value="j&amp;gt;0&lt;br&gt;key&amp;lt;numbers[j]" style="rhombus;whiteSpace=wrap;html=1;rounded=0;" vertex="1" parent="1">
          <mxGeometry x="420" y="840" width="120" height="100" as="geometry" />
        </mxCell>
        <mxCell id="pJswhFiRaAlgQsFaP6x4-32" value="" style="edgeStyle=orthogonalEdgeStyle;rounded=0;orthogonalLoop=1;jettySize=auto;html=1;" edge="1" parent="1" source="pJswhFiRaAlgQsFaP6x4-29" target="pJswhFiRaAlgQsFaP6x4-31">
          <mxGeometry relative="1" as="geometry" />
        </mxCell>
        <mxCell id="pJswhFiRaAlgQsFaP6x4-29" value="numbers [j+1] = numbers[j]" style="whiteSpace=wrap;html=1;rounded=0;" vertex="1" parent="1">
          <mxGeometry x="590" y="860" width="120" height="60" as="geometry" />
        </mxCell>
        <mxCell id="pJswhFiRaAlgQsFaP6x4-33" style="edgeStyle=orthogonalEdgeStyle;rounded=0;orthogonalLoop=1;jettySize=auto;html=1;entryX=0.5;entryY=0;entryDx=0;entryDy=0;" edge="1" parent="1" source="pJswhFiRaAlgQsFaP6x4-31" target="pJswhFiRaAlgQsFaP6x4-27">
          <mxGeometry relative="1" as="geometry">
            <mxPoint x="800" y="820" as="targetPoint" />
            <Array as="points">
              <mxPoint x="800" y="820" />
              <mxPoint x="480" y="820" />
            </Array>
          </mxGeometry>
        </mxCell>
        <mxCell id="pJswhFiRaAlgQsFaP6x4-31" value="j -= 1" style="whiteSpace=wrap;html=1;rounded=0;" vertex="1" parent="1">
          <mxGeometry x="740" y="860" width="120" height="60" as="geometry" />
        </mxCell>
        <mxCell id="pJswhFiRaAlgQsFaP6x4-37" value="" style="edgeStyle=orthogonalEdgeStyle;rounded=0;orthogonalLoop=1;jettySize=auto;html=1;" edge="1" parent="1" source="pJswhFiRaAlgQsFaP6x4-34" target="pJswhFiRaAlgQsFaP6x4-36">
          <mxGeometry relative="1" as="geometry" />
        </mxCell>
        <mxCell id="pJswhFiRaAlgQsFaP6x4-34" value="numbers [j+1] = key" style="whiteSpace=wrap;html=1;rounded=0;" vertex="1" parent="1">
          <mxGeometry x="420" y="1040" width="120" height="60" as="geometry" />
        </mxCell>
        <mxCell id="pJswhFiRaAlgQsFaP6x4-39" style="edgeStyle=orthogonalEdgeStyle;rounded=0;orthogonalLoop=1;jettySize=auto;html=1;entryX=0.5;entryY=0;entryDx=0;entryDy=0;" edge="1" parent="1" source="pJswhFiRaAlgQsFaP6x4-36" target="pJswhFiRaAlgQsFaP6x4-25">
          <mxGeometry relative="1" as="geometry">
            <mxPoint x="920" y="790" as="targetPoint" />
            <Array as="points">
              <mxPoint x="960" y="1170" />
              <mxPoint x="960" y="790" />
              <mxPoint x="300" y="790" />
            </Array>
          </mxGeometry>
        </mxCell>
        <mxCell id="pJswhFiRaAlgQsFaP6x4-36" value="i +1&amp;nbsp;" style="whiteSpace=wrap;html=1;rounded=0;" vertex="1" parent="1">
          <mxGeometry x="420" y="1140" width="120" height="60" as="geometry" />
        </mxCell>
        <mxCell id="pJswhFiRaAlgQsFaP6x4-44" style="edgeStyle=orthogonalEdgeStyle;rounded=0;orthogonalLoop=1;jettySize=auto;html=1;entryX=0.5;entryY=0;entryDx=0;entryDy=0;" edge="1" parent="1" source="pJswhFiRaAlgQsFaP6x4-42" target="pJswhFiRaAlgQsFaP6x4-43">
          <mxGeometry relative="1" as="geometry" />
        </mxCell>
        <mxCell id="pJswhFiRaAlgQsFaP6x4-42" value="i = 0" style="rounded=0;whiteSpace=wrap;html=1;" vertex="1" parent="1">
          <mxGeometry x="240" y="1000" width="120" height="60" as="geometry" />
        </mxCell>
        <mxCell id="pJswhFiRaAlgQsFaP6x4-45" value="True" style="edgeStyle=orthogonalEdgeStyle;rounded=0;orthogonalLoop=1;jettySize=auto;html=1;" edge="1" parent="1" source="pJswhFiRaAlgQsFaP6x4-43">
          <mxGeometry relative="1" as="geometry">
            <mxPoint x="300" y="1230" as="targetPoint" />
          </mxGeometry>
        </mxCell>
        <mxCell id="pJswhFiRaAlgQsFaP6x4-51" value="False" style="edgeStyle=orthogonalEdgeStyle;rounded=0;orthogonalLoop=1;jettySize=auto;html=1;" edge="1" parent="1" source="pJswhFiRaAlgQsFaP6x4-43" target="pJswhFiRaAlgQsFaP6x4-50">
          <mxGeometry relative="1" as="geometry" />
        </mxCell>
        <mxCell id="pJswhFiRaAlgQsFaP6x4-43" value="i&amp;nbsp; &amp;lt; n" style="rhombus;whiteSpace=wrap;html=1;" vertex="1" parent="1">
          <mxGeometry x="260" y="1100" width="80" height="80" as="geometry" />
        </mxCell>
        <mxCell id="pJswhFiRaAlgQsFaP6x4-48" value="" style="edgeStyle=orthogonalEdgeStyle;rounded=0;orthogonalLoop=1;jettySize=auto;html=1;" edge="1" parent="1" source="pJswhFiRaAlgQsFaP6x4-46" target="pJswhFiRaAlgQsFaP6x4-47">
          <mxGeometry relative="1" as="geometry" />
        </mxCell>
        <mxCell id="pJswhFiRaAlgQsFaP6x4-46" value="printf numbers[i]" style="shape=parallelogram;perimeter=parallelogramPerimeter;whiteSpace=wrap;html=1;fixedSize=1;" vertex="1" parent="1">
          <mxGeometry x="240" y="1230" width="120" height="60" as="geometry" />
        </mxCell>
        <mxCell id="pJswhFiRaAlgQsFaP6x4-49" style="edgeStyle=orthogonalEdgeStyle;rounded=0;orthogonalLoop=1;jettySize=auto;html=1;entryX=1;entryY=0.5;entryDx=0;entryDy=0;" edge="1" parent="1" source="pJswhFiRaAlgQsFaP6x4-47" target="pJswhFiRaAlgQsFaP6x4-43">
          <mxGeometry relative="1" as="geometry">
            <mxPoint x="380" y="1140" as="targetPoint" />
            <Array as="points">
              <mxPoint x="400" y="1370" />
              <mxPoint x="400" y="1140" />
            </Array>
          </mxGeometry>
        </mxCell>
        <mxCell id="pJswhFiRaAlgQsFaP6x4-47" value="i + 1" style="whiteSpace=wrap;html=1;" vertex="1" parent="1">
          <mxGeometry x="240" y="1340" width="120" height="60" as="geometry" />
        </mxCell>
        <mxCell id="pJswhFiRaAlgQsFaP6x4-50" value="End" style="ellipse;whiteSpace=wrap;html=1;" vertex="1" parent="1">
          <mxGeometry x="90" y="1100" width="120" height="80" as="geometry" />
        </mxCell>
      </root>
    </mxGraphModel>
  </diagram>
</mxfile>
